<svg xmlns="http://www.w3.org/2000/svg" viewBox="0 0 800 800" width="800" height="800" preserveAspectRatio="xMidYMid slice"><defs><linearGradient id="bg" x1="0%" y1="0%" x2="100%" y2="100%"><stop offset="0" stop-color="#F4F1EC" stop-opacity="1"/><stop offset="1" stop-color="#D8D2C9" stop-opacity="1"/></linearGradient><linearGradient id="fr" x1="0%" y1="0%" x2="100%" y2="100%"><stop offset="0" stop-color="#FF2A1A" stop-opacity="1"/><stop offset="1" stop-color="#B80000" stop-opacity="1"/></linearGradient><filter id="gr" x="0" y="0" width="100%" height="100%"><feTurbulence type="fractalNoise" baseFrequency=".8" numOctaves="2" seed="7"/><feColorMatrix type="matrix" values="0 0 0 0 1  0 0 0 0 1  0 0 0 0 1  0 0 0 .6 0"/></filter><filter id="b40" x="-60%" y="-60%" width="220%" height="220%"><feGaussianBlur stdDeviation="40"/></filter><filter id="b80" x="-80%" y="-80%" width="260%" height="260%"><feGaussianBlur stdDeviation="80"/></filter></defs><rect width="800" height="800" fill="url(#bg)"/><circle cx="150" cy="680" r="230" fill="#E60000" opacity=".16" filter="url(#b80)"/><rect x="300" y="330" width="360" height="360" rx="40" fill="#14110F"/><rect x="250" y="285" width="360" height="360" rx="40" fill="#fff" fill-opacity=".55" stroke="#14110F" stroke-opacity=".25" stroke-width="2"/><rect x="200" y="240" width="360" height="360" rx="40" fill="url(#fr)"/><rect x="248" y="300" width="220" height="16" rx="8" fill="#fff" fill-opacity="0.92"/><rect x="248" y="352" width="170" height="16" rx="8" fill="#fff" fill-opacity="0.80"/><rect x="248" y="404" width="200" height="16" rx="8" fill="#fff" fill-opacity="0.68"/><rect x="248" y="456" width="120" height="16" rx="8" fill="#fff" fill-opacity="0.56"/><circle cx="498" cy="520" r="26" fill="none" stroke="#fff" stroke-width="3"/><path d="M486 520 l9 9 l17 -19" fill="none" stroke="#fff" stroke-width="4" stroke-linecap="round" stroke-linejoin="round"/><rect width="800" height="800" filter="url(#gr)" opacity="0.04"/></svg>